# WaveFront *.obj file (generated by CINEMA 4D)

mtllib ./å±±å£3.mtl

v -122.74524688720703 -100 128.90251159667969
v -100 0 100
v -69.90448760986328 68.23348236083984 68.35027313232422
v 0 -100 187.13648986816406
v 0 0 162.23764038085938
v 0 100 100
v 523.28515625 -100 189.5789794921875
v 100 0 100
v 63.00202560424805 66.86696624755859 59.49741744995117
v 134.24885559082031 -100 -33.57548141479492
v 134.24885559082031 0 0
v 100 100 0
v 157.02882385253906 -100 -212.59400939941406
v 113.87343597412109 36.25349426269531 -134.06779479980469
v 64.25364685058594 100 -70.93529510498047
v -100 -169.07826232910156 -226.49009704589844
v 0 6.89767980575562 -253.48373413085938
v 0 100 -100
v -100 -100 -217.45867919921875
v -100 -48.61875915527344 -189.89544677734375
v -58.81655502319336 56.93924713134766 -66.30156707763672
v -157.53117370605469 -100 0
v -129.23455810546875 0 0
v -66.40163421630859 69.29659271240234 0
v 0 129.73146057128906 25.11220932006836
v -157.53117370605469 -169.07826232910156 -0.00000000494986
v -122.74524688720703 -169.07826232910156 128.90251159667969
v 0.00000000318348 -169.07826232910156 278.26702880859375
v 557.56707763671875 -169.07826232910156 69.16155242919922
v 134.24885559082031 -169.07826232910156 -46.84322357177734
v 157.02882385253906 -169.07826232910156 -212.59400939941406
v -0.00000003246973 -102.06215667724609 -311.22848510742188
v -0.00000009420951 -169.0780029296875 -316.61273193359375
v 121.56416320800781 -100 240.83587646484375
v 127.55571746826172 0.00000001043038 211.58737182617188
v 203.01686096191406 58.82994842529297 166.76956176757812
v 237.26571655273438 -54.55372619628906 66.76956939697266
v 237.26571655273438 0 95.24319458007812
v 101.38539123535156 -169.07826232910156 286.8511962890625
v 575.41766357421875 -169.07826232910156 261.90817260742188
v 237.26571655273438 -169.07826232910156 2.62585139274597
v 225.01182556152344 -100 337.19635009765625
v 225.01182556152344 0.00000002086077 286.1776123046875
v 325.01181030273438 74.47786712646484 223.93998718261719
v 359.26068115234375 -100 79.889404296875
v 359.26068115234375 0 123.93998718261719
v 225.01182556152344 -169.07826232910156 402.20700073242188
v 492.30569458007812 -169.07826232910156 375.39910888671875
v 359.26068115234375 -169.07826232910156 59.79627227783203
v 420.33236694335938 -100 310.33633422851562
v 378.39056396484375 0.00000003129115 271.3607177734375
v 478.39056396484375 0.00000001720215 209.12307739257812
v 524.85748291015625 -100 89.19022369384766
v 435.80157470703125 0 129.73680114746094
v -157.53117370605469 -227.11947631835938 -0.00000000494343
v -100 -227.11947631835938 -226.49009704589844
v -122.74524688720703 -227.11947631835938 128.90251159667969
v -0.00000009468906 -227.11921691894531 -316.61273193359375
v -0.00000002512537 -227.11947631835938 278.26702880859375
v 157.02882385253906 -227.11947631835938 -212.59400939941406
v 101.38539123535156 -227.11947631835938 286.8511962890625
v 134.24885559082031 -227.11947631835938 -46.84322357177734
v 225.01182556152344 -227.11947631835938 402.20700073242188
v 237.26571655273438 -227.11947631835938 2.62585115432739
v 492.30569458007812 -227.11947631835938 375.39910888671875
v 359.26068115234375 -227.11947631835938 59.79627227783203
v 575.41766357421875 -227.11947631835938 261.90817260742188
v 557.56707763671875 -227.11947631835938 69.16155242919922
# 68 vertices

vn -0.99243837594986 0.12180907279253 0.01512038707733
vn -0.9999715089798 0.00432060565799 0.00619057752192
vn -0.85658079385757 0.02463003434241 -0.51542484760284
vn -0.85246759653091 0.1680283844471 -0.49504089355469
vn -0.95494878292084 0.13756434619427 0.2629616856575
vn -0.85888612270355 0.09196835756302 0.50384169816971
vn -0.50813764333725 0.31649035215378 0.80101811885834
vn -0.72930723428726 0.4459333717823 0.51889729499817
vn -0.4494381248951 0.35020726919174 0.8218030333519
vn -0.4057856798172 0.40883368253708 0.8174307346344
vn 0.34183463454247 0.60910648107529 0.71563839912415
vn 0.33140480518341 0.48854622244835 0.80715143680573
vn 0.43962326645851 0.51026701927185 0.73916101455688
vn 0.75181728601456 0.61857998371124 0.22831916809082
vn -0.67024034261703 0.66040998697281 0.33858025074005
vn -0.58070397377014 0.67946726083755 0.44844967126846
vn 0.5301176905632 0.52436035871506 0.6663493514061
vn 0.5261167883873 0.60794252157211 0.59464871883392
vn 0.5923143029213 0.57415413856506 0.5652529001236
vn 0.62633627653122 0.51428407430649 0.58584535121918
vn 0.79499161243439 0.56794989109039 -0.21312274038792
vn 0.82438886165619 0.55210453271866 -0.12475407123566
vn 0.99592065811157 0.0654715821147 0.06209301203489
vn 0.94551306962967 0.30704924464226 -0.10828576236963
vn 0.61998373270035 0.59567767381668 0.51067441701889
vn 0.71263343095779 0.4960612654686 0.4960612654686
vn 0.86416900157928 0.4597048163414 -0.20465433597565
vn -0.54696530103683 0.3790867626667 0.74640613794327
vn 0.86417704820633 0.49465027451515 0.09229896217585
vn 0.28925269842148 0.77848809957504 0.5570359826088
vn 0.40761071443558 0.65188276767731 -0.63945478200912
vn 0.23701713979244 0.90017706155777 -0.36538216471672
vn -0.65684723854065 0.52252328395844 -0.54361855983734
vn -0.64793407917023 0.70458143949509 -0.28938964009285
vn -0.68960493803024 0.6710359454155 -0.27231547236443
vn -0.78842204809189 0.47113889455795 -0.39549812674522
vn -0.90353709459305 0.42804238200188 -0.02001020312309
vn -0.71790713071823 0.69477307796478 -0.04358549043536
vn -0.62854796648026 0.7774316072464 -0.02296755649149
vn 0.51572722196579 0.6841424703598 0.51572722196579
vn 0.17929115891457 0.96728551387787 -0.17948098480701
vn 0.9587150812149 0.27651980519295 -0.06634885817766
vn 0.99100691080093 -0.00606012437493 0.13367347419262
vn -0.66123634576797 0.22321869432926 -0.71619826555252
vn -0.67245906591415 0.03884372487664 -0.73911428451538
vn 0.54148578643799 0.26322954893112 -0.79843807220459
vn 0.54710924625397 0.01672087237239 -0.83689421415329
vn -0.45143023133278 0.47662642598152 0.7543460726738
vn -0.45319306850433 0.65498220920563 0.60466051101685
vn -0.29196920990944 0.95370626449585 0.07209974527359
vn -0.15150029957294 0.97929978370666 -0.13423697650433
vn -0.13520686328411 0.98554998636246 -0.10203123837709
vn -0.00149270449765 0.94323527812958 -0.33212193846703
vn 0.26693695783615 0.67836540937424 -0.68451815843582
vn 0.60740453004837 0.31416857242584 -0.72962856292725
vn 0.57125157117844 0.30894440412521 -0.76041102409363
vn 0.43263539671898 0.35663846135139 -0.82803118228912
vn 0.05488511547446 0.34894815087318 -0.93553346395493
vn 0.16996003687382 0.37472394108772 -0.91142499446869
vn 0.222152993083 0.1686432659626 -0.9603163599968
vn 0.04883112758398 0.14573876559734 -0.98811727762222
vn -0.42162656784058 0.35232052206993 0.835524559021
vn 0.49041038751602 0.153724655509 -0.85782653093338
vn 0.44088217616081 0.17029969394207 -0.8812609910965
vn -0.43537691235542 0.47795698046684 0.76289194822311
vn -0.26795852184296 0.54511445760727 0.79438561201096
vn -0.16846938431263 0.60407567024231 0.77891629934311
vn -0.05391484871507 0.77074104547501 0.63486331701279
vn 0.16831281781197 0.8926522731781 -0.41814205050468
vn 0.16476841270924 0.69414246082306 -0.70072644948959
vn 0.060098066926 0.4080907702446 -0.9109610915184
vn 0.18134817481041 0.95015293359756 -0.25361827015877
vn -0.99997252225876 -0.00000000000001 0.00741619011387
vn -0.85614818334579 -0.00000000000001 -0.51673036813736
vn -0.8889571428299 0.00000000009637 0.45799034833908
vn -0.66946786642075 0 -0.74284100532532
vn -0.77259188890457 0.00000000018841 0.63490301370621
vn 0.55224561691284 -0.00000000000228 -0.83368146419525
vn -0.40560054779053 0 0.91405045986176
vn -0.08436682075262 0 0.99643474817276
vn 0.99068754911423 0 0.13615518808365
vn -0.6822270154953 0 0.73114037513733
vn 0.43288025259972 0 -0.90145140886307
vn 0.42861703038216 0.0000000009299 -0.90348625183105
vn 0.09979306161404 0 0.99500823020935
vn 0.24033840000629 0.00000000094795 -0.97068917751312
vn 0.80679374933243 0 0.59083318710327
vn 0.04717373475432 0 -0.99888670444489
vn 0.99573892354965 0 -0.09221705049276
# 89 normals

vt 0 1 0
vt 1 1 0
vt 1 0 0
vt 0 0 0
vt 0 0.5 0
vt 0.5 0.5 0
vt 0.5 0 0
vt 1 0.5 0
vt 0.5 1 0
# 9 texture coordinates

o Cube
usemtl default
f 19/4/4 16/3/3 26/2/2 22/1/1
f 22/4/1 26/3/2 27/2/6 1/1/5
f 4/7/10 5/6/9 2/5/8 1/4/7
f 7/3/14 52/8/13 51/6/12 50/7/11
f 5/6/9 6/9/16 3/1/15 2/5/8
f 8/8/20 9/2/19 6/9/18 5/6/17
f 53/7/22 54/6/21 52/5/21 7/4/14
f 13/3/23 14/8/24 11/6/24 10/7/23
f 11/6/26 12/9/25 9/1/19 8/5/20
f 14/8/24 15/2/27 12/9/27 11/6/24
f 1/4/7 27/3/6 28/2/28 4/1/10
f 50/4/11 48/3/30 40/2/29 7/1/14
f 17/6/31 18/9/32 15/1/32 14/5/31
f 20/8/36 21/2/35 18/9/34 17/6/33
f 22/7/1 23/6/37 20/5/36 19/4/4
f 1/3/5 2/8/8 23/6/37 22/7/1
f 23/6/37 24/9/38 21/1/35 20/5/36
f 2/8/8 3/2/15 24/9/38 23/6/37
f 6/7/16 25/6/39 24/5/38 3/4/15
f 9/3/19 12/8/25 25/6/40 6/7/18
f 25/6/39 18/9/34 21/1/35 24/5/38
f 12/8/41 15/2/32 18/9/32 25/6/41
f 7/4/14 40/3/29 29/2/42 53/1/22
f 10/4/23 30/3/43 31/2/43 13/1/23
f 19/4/4 20/3/36 17/2/33 32/1/44
f 16/4/3 19/3/4 32/2/44 33/1/45
f 14/4/31 13/3/46 32/2/46 17/1/31
f 13/4/46 31/3/47 33/2/47 32/1/46
f 35/6/49 5/6/9 4/7/10 34/7/48
f 36/8/52 8/8/51 5/6/50 35/6/49
f 38/6/54 11/6/53 8/5/51 36/5/52
f 37/7/57 10/7/56 11/6/55 38/6/54
f 29/2/61 49/2/60 45/1/59 53/1/58
f 34/4/48 4/4/10 28/3/28 39/3/62
f 41/2/64 30/2/63 10/1/56 37/1/57
f 50/4/11 42/4/66 47/3/65 48/3/30
f 43/6/67 35/6/49 34/7/48 42/7/66
f 44/8/68 36/8/52 35/6/49 43/6/67
f 46/6/70 38/6/54 36/5/52 44/5/69
f 45/7/59 37/7/57 38/6/54 46/6/70
f 53/7/58 45/7/59 46/6/70 54/6/71
f 42/4/66 34/4/48 39/3/62 47/3/65
f 49/2/60 41/2/64 37/1/57 45/1/59
f 54/6/72 46/6/70 44/5/69 52/5/72
f 51/6/12 43/6/67 42/7/66 50/7/11
f 52/8/13 44/8/68 43/6/67 51/6/12
f 16/4/3 56/3/74 55/2/73 26/1/2
f 26/4/2 55/3/73 57/2/75 27/1/6
f 33/4/45 58/3/76 56/2/74 16/1/3
f 27/4/6 57/3/75 59/2/77 28/1/28
f 31/4/47 60/3/78 58/2/78 33/1/47
f 28/4/80 59/3/80 61/2/79 39/1/62
f 30/4/43 62/3/81 60/2/81 31/1/43
f 39/4/62 61/3/79 63/2/82 47/1/65
f 41/4/64 64/3/84 62/2/83 30/1/63
f 47/4/85 63/3/85 65/2/85 48/1/85
f 49/4/60 66/3/86 64/2/84 41/1/64
f 48/4/87 65/3/87 67/2/87 40/1/87
f 29/4/61 68/3/88 66/2/86 49/1/60
f 40/4/29 67/3/89 68/2/89 29/1/42

