# WaveFront *.obj file (generated by CINEMA 4D)

mtllib ./å±±å£2.mtl

v -122.74524688720703 -100 128.90251159667969
v -100 0 100
v -69.90448760986328 68.23348236083984 68.35027313232422
v 0 -100 187.13648986816406
v 0 0 162.23764038085938
v 0 100 100
v 100 -100 100
v 100 0 100
v 63.00202560424805 66.86696624755859 59.49741744995117
v 134.24885559082031 -100 0
v 134.24885559082031 0 0
v 100 100 0
v 157.02882385253906 -100 -212.59400939941406
v 113.87343597412109 36.25349426269531 -134.06779479980469
v 64.25364685058594 100 -70.93529510498047
v -100 -169.07826232910156 -226.49009704589844
v 0 6.89767980575562 -253.48373413085938
v 0 100 -100
v -100 -100 -217.45867919921875
v -100 -48.61875915527344 -189.89544677734375
v -58.81655502319336 56.93924713134766 -66.30156707763672
v -157.53117370605469 -100 0
v -129.23455810546875 0 0
v -66.40163421630859 69.29659271240234 0
v 0 129.73146057128906 25.11220932006836
v -157.53117370605469 -169.07826232910156 -0.00000000494986
v -122.74524688720703 -169.07826232910156 128.90251159667969
v 0.00000000318348 -169.07826232910156 187.13648986816406
v 100 -169.07826232910156 100
v 134.24885559082031 -169.07826232910156 0
v 157.02882385253906 -169.07826232910156 -212.59400939941406
v -0.00000003246973 -102.06215667724609 -311.22848510742188
v -0.00000009420951 -169.0780029296875 -316.61273193359375
# 33 vertices

vn -0.99243837594986 0.12180907279253 0.01512038707733
vn -0.99995028972626 0.00864407513291 0.00496400194243
vn -0.8564926981926 0.04920118302107 -0.51380878686905
vn -0.85246759653091 0.1680283844471 -0.49504089355469
vn -0.95494878292084 0.13756434619427 0.2629616856575
vn -0.96546250581741 0 0.26054194569588
vn -0.44850939512253 0.14272151887417 0.88230937719345
vn -0.72930723428726 0.4459333717823 0.51889729499817
vn -0.48576566576958 0.39674535393715 0.77886128425598
vn 0.62583458423614 0.0522639863193 0.7782027721405
vn 0.57549375295639 0.3224093914032 0.75157111883163
vn 0.73739093542099 0.29824185371399 0.60605812072754
vn 0.81864386796951 0.02718408592045 0.57365775108337
vn -0.67024034261703 0.66040998697281 0.33858025074005
vn -0.58070397377014 0.67946726083755 0.44844967126846
vn 0.5261167883873 0.60794252157211 0.59464871883392
vn 0.5923143029213 0.57415413856506 0.5652529001236
vn 0.94370996952057 0.29014438390732 0.15883231163025
vn 0.98221892118454 0.03161819651723 0.18505743145943
vn 0.94730490446091 0.2983455657959 -0.11663325130939
vn 0.99717026948929 0.06267833709717 0.04150792583823
vn 0.61998373270035 0.59567767381668 0.51067441701889
vn 0.86416900157928 0.4597048163414 -0.20465433597565
vn -0.42863631248474 -0.00000000000988 0.9034771323204
vn 0.82982730865479 0 0.55802023410797
vn 0.6569510102272 0 0.75393331050873
vn 0.40761071443558 0.65188276767731 -0.63945478200912
vn 0.23701713979244 0.90017706155777 -0.36538216471672
vn -0.65684723854065 0.52252328395844 -0.54361855983734
vn -0.64793407917023 0.70458143949509 -0.28938964009285
vn -0.68960493803024 0.6710359454155 -0.27231547236443
vn -0.78842204809189 0.47113889455795 -0.39549812674522
vn -0.90353709459305 0.42804238200188 -0.02001020312309
vn -0.71790713071823 0.69477307796478 -0.04358549043536
vn -0.62854796648026 0.7774316072464 -0.02296755649149
vn 0.51572722196579 0.6841424703598 0.51572722196579
vn 0.17929115891457 0.96728551387787 -0.17948098480701
vn 0.97625482082367 0 0.21662527322769
vn 0.99430817365646 0 0.10654255002737
vn -0.66123634576797 0.22321869432926 -0.71619826555252
vn -0.67442029714584 0.07762795686722 -0.73425549268723
vn 0.54148578643799 0.26322954893112 -0.79843807220459
vn 0.54179978370666 0.03343645483255 -0.83984225988388
# 43 normals

vt 0 1 0
vt 1 1 0
vt 1 0 0
vt 0 0 0
vt 0 0.5 0
vt 0.5 0.5 0
vt 0.5 0 0
vt 1 0.5 0
vt 0.5 1 0
# 9 texture coordinates

o Cube
usemtl default
f 19/4/4 16/3/3 26/2/2 22/1/1
f 22/4/1 26/3/2 27/2/6 1/1/5
f 4/7/7 5/6/9 2/5/8 1/4/7
f 7/3/13 8/8/12 5/6/11 4/7/10
f 5/6/9 6/9/15 3/1/14 2/5/8
f 8/8/12 9/2/17 6/9/16 5/6/11
f 10/7/19 11/6/18 8/5/12 7/4/13
f 13/3/21 14/8/20 11/6/18 10/7/19
f 11/6/18 12/9/22 9/1/17 8/5/12
f 14/8/20 15/2/23 12/9/23 11/6/18
f 1/4/7 27/3/24 28/2/24 4/1/7
f 4/4/10 28/3/26 29/2/25 7/1/13
f 17/6/27 18/9/28 15/1/28 14/5/27
f 20/8/32 21/2/31 18/9/30 17/6/29
f 22/7/1 23/6/33 20/5/32 19/4/4
f 1/3/5 2/8/8 23/6/33 22/7/1
f 23/6/33 24/9/34 21/1/31 20/5/32
f 2/8/8 3/2/14 24/9/34 23/6/33
f 6/7/15 25/6/35 24/5/34 3/4/14
f 9/3/17 12/8/22 25/6/36 6/7/16
f 25/6/35 18/9/30 21/1/31 24/5/34
f 12/8/37 15/2/28 18/9/28 25/6/37
f 7/4/13 29/3/25 30/2/38 10/1/19
f 10/4/19 30/3/38 31/2/39 13/1/21
f 19/4/4 20/3/32 17/2/29 32/1/40
f 16/4/3 19/3/4 32/2/40 33/1/41
f 14/4/27 13/3/42 32/2/42 17/1/27
f 13/4/42 31/3/43 33/2/43 32/1/42

